<svg width="24" height="24" viewBox="0 0 24 24" fill="none" xmlns="http://www.w3.org/2000/svg">
<path fill-rule="evenodd" clip-rule="evenodd" d="M2.8889 7.31429C6.22223 3.65714 10.3334 3.77143 12.5556 6.05714C7.77779 7.2 11.4609 12.4277 15.2222 10.8571C19.239 9.17987 18.9792 2.79296 11.3582 0.0761021C11.7875 0.0258336 12.2241 0 12.6667 0C18.9159 0 23.9838 5.15142 24 11.5123C23.2124 9.24942 22.1178 7.60726 20.6667 6.4C21.8274 11.2472 20.3334 14.5143 16.7778 15.2C18.5556 10.6286 11.5681 10.8571 11.409 15.5553C11.2646 19.8233 16.6585 22.1276 22.4904 17.3491C20.6826 21.2785 16.7645 24 12.2222 24C10.046 24 8.01305 23.3753 6.2868 22.2923C8.67291 22.7552 10.9096 22.7396 12.5556 21.9429C7.77779 21.0286 5.88891 17.2571 6.66669 14.2857C10 18.0571 13.1111 12.1143 9.33335 9.48571C5.73299 7.35356 0.632841 10.6166 1.92221 18.205C0.708355 16.3667 0 14.1533 0 11.7714C0 7.61289 2.15918 3.96798 5.39802 1.93617C3.96239 3.69633 3.13378 5.49329 2.8889 7.31429Z" fill="#985AEA"/>
</svg>
