<svg width="25" height="24" viewBox="0 0 25 24" fill="none" xmlns="http://www.w3.org/2000/svg">
<path d="M8.61812 0C2.38857 1.61536 2.73464 9.80751 11.5022 11.3075C7.1184 7.84601 6.5416 2.99995 8.61812 0Z" fill="#1AD1B1"/>
<path d="M6.27769 14.7534C4.09174 15.8469 -1.31562 14.8685 0.295072 8.30756C0.755283 8.53777 0.891388 8.84835 1.10043 9.11329C4.66699 14.5232 8.05106 10.8928 10.5345 13.9722C13.018 17.0515 8.46363 19.0123 8.11849 16.1347C10.3965 16.2687 10.4195 14.6383 9.7292 14.1224C9.0389 13.6065 7.65829 14.0628 6.27769 14.7534Z" fill="#1AD1B1"/>
<path d="M21.4378 3.46149C24.1765 7.03827 22.5787 11.9992 17.3294 12.1148C11.8517 12.2352 10.9384 19.0378 16.7581 17.7691C14.7427 19.6344 13.7642 21.0334 12.3079 23.9996C10.8263 21.0332 9.83031 19.6345 7.7796 17.7691C13.7009 19.0383 12.7723 12.2354 7.19952 12.1148C1.85867 11.9994 0.233345 7.03834 3.01984 3.46149C3.82547 8.77431 6.75558 10.1851 9.15948 11.3423C10.5666 12.0198 11.7935 12.6108 12.3079 13.8463C12.8135 12.6108 14.0196 12.0197 15.4026 11.3423C17.7654 10.1851 20.646 8.7742 21.4378 3.46149ZM12.3079 19.4996C11.955 19.618 11.7508 19.8219 11.5335 20.0386L11.4954 20.0767C11.9673 20.4917 12.1567 20.7418 12.3079 21.23C12.4566 20.7418 12.6427 20.4919 13.1068 20.0767L13.0687 20.0386C12.8551 19.822 12.6547 19.618 12.3079 19.4996ZM12.3079 17.7691C11.7137 18.5024 11.4204 18.7221 10.9144 19.0377C11.4926 18.8762 11.8023 18.6748 12.1624 18.44C12.2097 18.4092 12.2582 18.3782 12.3079 18.3463C12.3567 18.3781 12.4041 18.4092 12.4505 18.44C12.8044 18.6748 13.1088 18.8762 13.6771 19.0377C13.1799 18.7222 12.8918 18.5021 12.3079 17.7691Z" fill="#1AD1B1"/>
<path d="M16.1338 0C22.1624 1.61536 21.8275 9.80751 13.3428 11.3075C17.5852 7.84601 18.1434 2.99995 16.1338 0Z" fill="#1AD1B1"/>
<path d="M18.3372 14.7534C20.5232 15.8469 25.9305 14.8685 24.3199 8.30756C23.8596 8.53777 23.7235 8.84835 23.5145 9.11329C19.9479 14.5232 16.5639 10.8928 14.0804 13.9722C11.5969 17.0515 16.1513 19.0123 16.4964 16.1347C14.2185 16.2687 14.1954 14.6383 14.8857 14.1224C15.576 13.6065 16.9566 14.0628 18.3372 14.7534Z" fill="#1AD1B1"/>
</svg>
