<svg width="22" height="25" viewBox="0 0 22 25" fill="none" xmlns="http://www.w3.org/2000/svg">
<path d="M10.8354 23.0676C14.1225 20.0483 24.5925 17.9952 18.0183 12.5604C20.8184 16.5459 16.3138 21.0145 11.3223 21.0145C5.96555 21.256 4.50462 14.9758 9.73965 15.942C6.20913 18.9614 10.9571 21.8599 14.8529 18.9614C17.0443 17.1498 16.8009 13.6513 12.1745 11.8357C1.09575 7.48792 11.2005 3.86473 10.3484 0C17.2878 6.03865 7.79173 6.03865 10.8354 10.0242C10.4852 7.80506 11.0718 6.80092 13.5138 5.43478C12.7627 8.69788 13.1447 10.1748 15.2182 12.1981C13.4842 9.73202 13.6355 7.97101 15.4617 6.52174C15.9486 10.9903 21.3088 11.715 21.4272 15.942C21.5421 20.0483 14.6094 21.3768 10.8354 25C5.6003 20.2899 -0.00944065 19.5629 2.97229e-05 16.3043C0.00732008 13.7959 2.31318 11.9565 5.84381 6.88406C6.20904 9.78261 8.64395 10.7488 10.7136 11.715C5.60032 12.0773 4.26113 16.3043 6.20913 19.2029C4.26116 18.599 1.09579 16.6667 3.65244 12.1981C-2.43482 18.4783 7.54828 19.5652 10.8354 23.0676Z" fill="#F04D43"/>
</svg>
