<svg width="167" height="33" viewBox="0 0 167 33" fill="none" xmlns="http://www.w3.org/2000/svg">
<path d="M42.41 6.28003H48.8C53.89 6.28003 56.44 8.16003 56.44 11.91C56.44 14.78 54.94 16.59 51.95 17.34C50.72 17.57 49.2 17.64 47.37 17.55V20.95C47.37 22.76 46.14 24.03 43.69 24.77C43.44 24.75 43.34 24.63 43.37 24.4V9.43003C43.37 8.28003 42.83 7.42003 41.74 6.85003V6.67003C41.85 6.41003 42.07 6.28003 42.41 6.28003ZM47.38 8.47003V15.35H49.2C51.42 15.35 52.53 14.21 52.53 11.92C52.53 9.63003 51.39 8.47003 49.1 8.47003H47.38Z" fill="white"/>
<path d="M66.61 11.7801C68.45 11.7501 69.45 13.0101 69.62 15.5501V15.8901C69.62 16.0601 69.54 16.1601 69.37 16.1901H67.23C67.11 16.1801 67.05 16.0801 67.05 15.8901C66.94 15.0501 66.68 14.5601 66.27 14.4201L65.99 14.4001C65.33 14.4001 64.56 15.0501 63.69 16.3601C63.58 16.5601 63.53 16.7401 63.53 16.8901V20.6201C63.53 22.7501 62.66 24.0701 60.91 24.5801C60.8 24.6301 60.52 24.6601 60.06 24.6701C59.95 24.6401 59.89 24.5601 59.88 24.4401V15.7001C59.88 14.6901 59.41 13.8901 58.45 13.3101C58.47 13.0301 58.6 12.8701 58.84 12.8301C61.29 12.2501 62.72 11.9301 63.12 11.8901C63.26 11.8901 63.31 11.9701 63.28 12.1401V14.8801H63.35C64.25 12.8101 65.34 11.7801 66.62 11.8001L66.61 11.7801Z" fill="white"/>
<path d="M76.48 11.53C76.6 11.58 76.66 11.65 76.66 11.74V22.34C76.71 23.7801 75.66 24.5 73.51 24.5C72.99 24.48 72.73 24.39 72.73 24.22V15.94C72.73 14.51 72.18 13.54 71.07 13.02C71.04 12.73 71.2 12.56 71.55 12.51C74.37 11.9 76.01 11.57 76.47 11.52L76.48 11.53ZM72.47 7.66005C72.47 8.18005 72.63 8.64005 72.95 9.04005C73.38 9.48005 73.91 9.71005 74.54 9.71005C75.17 9.71005 75.64 9.49005 76.06 9.04005C76.43 8.64005 76.62 8.18005 76.64 7.66005C76.62 7.12005 76.43 6.66005 76.06 6.26005C75.65 5.80005 75.14 5.56005 74.54 5.55005C73.99 5.57005 73.51 5.76005 73.11 6.13005C72.68 6.54005 72.47 7.06005 72.47 7.67005V7.66005Z" fill="white"/>
<path d="M88.37 11.6901H88.53C89.94 11.7101 90.95 12.2501 91.57 13.3201C92.46 12.2501 93.68 11.7201 95.23 11.7301H95.41C97.45 11.7301 98.81 12.5401 99.5 14.1501C99.62 14.6101 99.68 14.9901 99.66 15.3001L99.64 22.7301C99.56 23.8301 98.75 24.4601 97.2 24.6201C96.83 24.6301 96.48 24.6301 96.14 24.6201C96.02 24.5901 95.96 24.5001 95.98 24.3401L96 15.9201C96.01 14.5401 95.43 13.8201 94.25 13.7601C93.45 13.8201 92.82 14.2701 92.36 15.1201L92.34 23.4501C92.39 24.1701 92.11 24.5501 91.51 24.6001H89C88.88 24.5801 88.82 24.4901 88.84 24.3001L88.86 16.0001C88.87 14.5601 88.32 13.8201 87.18 13.7901C86.32 13.8201 85.66 14.1601 85.2 14.8001L85.18 23.3101C85.24 24.1501 84.93 24.5701 84.24 24.5701H81.69C81.54 24.5401 81.44 24.4301 81.41 24.2501L81.46 15.2301C81.46 14.4201 80.95 13.7301 79.94 13.1601C79.93 12.9001 80.09 12.7401 80.45 12.6801C82.18 12.3001 83.6 12.0101 84.7 11.8101C84.9 11.8101 84.98 11.9201 84.95 12.1501V13.0901C85.75 12.1501 86.88 11.6901 88.35 11.6901H88.37Z" fill="white"/>
<path d="M102.7 18.13C102.7 17.15 102.85 16.25 103.15 15.44C103.45 14.63 103.89 13.93 104.46 13.35C105.03 12.77 105.74 12.31 106.56 11.98C107.39 11.65 108.33 11.49 109.39 11.49C110.45 11.49 111.39 11.66 112.22 11.98C113.05 12.31 113.75 12.77 114.32 13.35C114.9 13.93 115.33 14.63 115.63 15.44C115.93 16.25 116.08 17.15 116.08 18.13C116.08 19.11 115.93 20.01 115.63 20.82C115.33 21.63 114.89 22.33 114.32 22.91C113.75 23.49 113.04 23.95 112.22 24.28C111.39 24.61 110.45 24.77 109.39 24.77C108.33 24.77 107.39 24.6 106.56 24.28C105.73 23.95 105.03 23.49 104.46 22.91C103.88 22.33 103.45 21.63 103.15 20.82C102.85 20.01 102.7 19.11 102.7 18.13ZM106.61 18.13C106.61 19.59 106.86 20.73 107.35 21.55C107.84 22.37 108.52 22.78 109.4 22.78C110.28 22.78 110.96 22.37 111.45 21.55C111.94 20.73 112.19 19.59 112.19 18.13C112.19 16.67 111.94 15.54 111.45 14.71C110.96 13.89 110.28 13.48 109.4 13.48C108.52 13.48 107.84 13.89 107.35 14.71C106.86 15.53 106.61 16.67 106.61 18.13Z" fill="white"/>
<path d="M130 9.92004C130.23 9.92004 130.37 10.06 130.41 10.33C130.44 10.54 130.45 10.77 130.43 11C130.34 12.1 129.98 12.99 129.37 13.65C129.71 14.31 129.88 15.02 129.88 15.79V16C129.88 17.98 128.82 19.31 126.71 20C126.33 20.18 124.69 20.29 121.79 20.32C121.65 20.6 121.65 20.87 121.79 21.15C121.94 21.5 122.48 21.68 123.4 21.68H125.1C129.3 21.68 131.4 23.16 131.4 26.12C131.4 28.21 129.92 29.55 126.96 30.14C126.04 30.26 125.15 30.32 124.29 30.32H124.2C120.27 30.32 118.31 29.16 118.31 26.85C118.31 25.82 118.93 24.96 120.17 24.25C119.24 23.82 118.77 23.02 118.77 21.86C118.77 20.7 119.49 19.75 120.93 19.08L120.91 19.1C119.59 18.55 118.92 17.58 118.89 16.2C118.87 16.17 118.87 15.98 118.87 15.63C118.87 13.79 119.82 12.51 121.72 11.79C122.39 11.5 123.28 11.35 124.39 11.35C125.5 11.35 126.54 11.5 127.59 11.79C128.48 11.97 129.28 11.35 130.01 9.93004L130 9.92004ZM127.93 26.62C127.93 25.96 127.62 25.49 127 25.21C126.38 24.93 125.59 24.78 124.64 24.78H123.88C123.6 24.78 123.33 24.78 123.05 24.77C122.77 24.77 122.51 24.75 122.26 24.75C122.01 24.75 121.79 24.73 121.6 24.72C121.39 24.89 121.22 25.14 121.1 25.47C120.99 25.8 120.93 26.19 120.93 26.63C120.93 27.04 121.03 27.38 121.24 27.63C121.45 27.88 121.71 28.08 122.04 28.22C122.37 28.36 122.75 28.45 123.17 28.5C123.59 28.55 124.02 28.57 124.45 28.57C124.91 28.57 125.35 28.54 125.77 28.48C126.19 28.42 126.56 28.31 126.87 28.16C127.18 28.01 127.44 27.81 127.63 27.56C127.82 27.31 127.92 27.01 127.92 26.64L127.93 26.62ZM126.04 15.85C126.04 15.01 125.88 14.35 125.57 13.87C125.26 13.39 124.82 13.16 124.25 13.16C123.68 13.16 123.24 13.4 122.93 13.87C122.62 14.35 122.46 15 122.46 15.85C122.46 16.7 122.62 17.35 122.93 17.83C123.24 18.31 123.68 18.54 124.25 18.54C124.82 18.54 125.26 18.3 125.57 17.83C125.88 17.35 126.04 16.7 126.04 15.85Z" fill="white"/>
<path d="M144.72 15.8301C145.01 16.7301 145.1 17.6901 145 18.7101C145.02 19.0501 144.88 19.2201 144.59 19.2201L136.75 19.2701C136.64 19.2401 136.6 19.3001 136.63 19.4501C136.65 21.1101 137.48 22.1001 139.14 22.4401C140.8 22.7801 142.35 22.4201 143.81 21.3801C143.86 21.3301 143.91 21.3301 143.97 21.3601C144.15 21.5001 144.36 21.7001 144.59 21.9801C144.68 22.0701 144.7 22.1601 144.64 22.2301C143.05 24.0201 141.09 24.8601 138.78 24.7401C135.91 24.6301 133.96 23.2101 132.94 20.4901C132.8 19.8601 132.73 19.2901 132.73 18.7901V17.8901C133.22 13.8001 135.23 11.7301 138.76 11.6801C141.75 11.6801 143.74 13.0701 144.74 15.8401L144.72 15.8301ZM138.71 13.3901C138.17 13.3901 137.7 13.6701 137.28 14.2301C136.87 14.7901 136.66 15.7401 136.66 17.0701H141.24C141.29 15.9001 141.06 15.0001 140.57 14.3401C140.08 13.6901 139.46 13.3701 138.71 13.3901Z" fill="white"/>
<path d="M155.34 11.6901H155.5C156.91 11.7101 157.92 12.2501 158.54 13.3201C159.43 12.2501 160.65 11.7201 162.2 11.7301H162.38C164.42 11.7301 165.78 12.5401 166.47 14.1501C166.59 14.6101 166.65 14.9901 166.63 15.3001L166.61 22.7301C166.53 23.8301 165.72 24.4601 164.17 24.6201C163.8 24.6301 163.45 24.6301 163.11 24.6201C162.99 24.5901 162.93 24.5001 162.95 24.3401L162.97 15.9201C162.98 14.5401 162.4 13.8201 161.22 13.7601C160.42 13.8201 159.79 14.2701 159.33 15.1201L159.31 23.4501C159.36 24.1701 159.08 24.5501 158.48 24.6001H155.97C155.85 24.5801 155.79 24.4901 155.81 24.3001L155.83 16.0001C155.84 14.5601 155.29 13.8201 154.15 13.7901C153.29 13.8201 152.63 14.1601 152.17 14.8001L152.15 23.3101C152.21 24.1501 151.9 24.5701 151.21 24.5701H148.66C148.51 24.5401 148.41 24.4301 148.38 24.2501L148.43 15.2301C148.43 14.4201 147.92 13.7301 146.91 13.1601C146.9 12.9001 147.06 12.7401 147.42 12.6801C149.15 12.3001 150.57 12.0101 151.67 11.8101C151.87 11.8101 151.95 11.9201 151.92 12.1501V13.0901C152.72 12.1501 153.85 11.6901 155.32 11.6901H155.34Z" fill="white"/>
<path d="M16.13 0C14.43 13.05 13.06 14.43 0 16.13C13.05 17.83 14.43 19.2 16.13 32.26C17.83 19.21 19.2 17.83 32.26 16.13C19.21 14.43 17.83 13.06 16.13 0Z" fill="#0173DF"/>
<path d="M27.53 4.71997C17.1 12.75 15.15 12.75 4.72 4.71997C12.75 15.15 12.75 17.1 4.72 27.53C15.15 19.5 17.1 19.5 27.53 27.53C19.5 17.1 19.5 15.15 27.53 4.71997Z" fill="#3AFFFF"/>
</svg>
