<svg width="12" height="12" viewBox="0 0 12 12" fill="none" xmlns="http://www.w3.org/2000/svg">
<path d="M6 0C9.3138 0 12 2.6862 12 6C12 9.3138 9.3138 12 6 12C2.6862 12 0 9.3138 0 6C0 2.6862 2.6862 0 6 0ZM6 8.4C5.84087 8.4 5.68826 8.46321 5.57574 8.57574C5.46321 8.68826 5.4 8.84087 5.4 9C5.4 9.15913 5.46321 9.31174 5.57574 9.42426C5.68826 9.53679 5.84087 9.6 6 9.6C6.15913 9.6 6.31174 9.53679 6.42426 9.42426C6.53679 9.31174 6.6 9.15913 6.6 9C6.6 8.84087 6.53679 8.68826 6.42426 8.57574C6.31174 8.46321 6.15913 8.4 6 8.4ZM6 2.7C5.42315 2.7 4.86993 2.92915 4.46204 3.33704C4.05415 3.74493 3.825 4.29815 3.825 4.875C3.825 5.03413 3.88821 5.18674 4.00074 5.29926C4.11326 5.41179 4.26587 5.475 4.425 5.475C4.58413 5.475 4.73674 5.41179 4.84926 5.29926C4.96179 5.18674 5.025 5.03413 5.025 4.875C5.0252 4.69802 5.07356 4.52444 5.16491 4.37285C5.25626 4.22127 5.38714 4.09741 5.54352 4.01455C5.69991 3.93169 5.87589 3.89296 6.05261 3.90251C6.22933 3.91206 6.40012 3.96954 6.54667 4.06876C6.69321 4.16799 6.80998 4.30524 6.88446 4.46578C6.95894 4.62633 6.98831 4.80411 6.96944 4.98008C6.95056 5.15605 6.88415 5.32356 6.77731 5.46466C6.67048 5.60575 6.52726 5.71511 6.363 5.781C5.9574 5.943 5.4 6.3582 5.4 7.05V7.2C5.4 7.35913 5.46321 7.51174 5.57574 7.62426C5.68826 7.73679 5.84087 7.8 6 7.8C6.15913 7.8 6.31174 7.73679 6.42426 7.62426C6.53679 7.51174 6.6 7.35913 6.6 7.2C6.6 7.0536 6.63 6.9804 6.7566 6.918L6.8088 6.894C7.27729 6.70554 7.66563 6.35997 7.90724 5.91655C8.14886 5.47313 8.22869 4.95947 8.13307 4.46363C8.03745 3.96779 7.77233 3.52066 7.38315 3.19888C6.99397 2.87711 6.50497 2.70073 6 2.7Z" fill="#939393"/>
</svg>
