<svg width="19" height="19" viewBox="0 0 19 19" fill="none" xmlns="http://www.w3.org/2000/svg">
<path d="M16.2429 15.2447C16.9359 15.0454 17.3361 14.3219 17.1367 13.6289C16.9374 12.9358 16.2139 12.5356 15.5209 12.735C14.8278 12.9344 14.4276 13.6578 14.627 14.3509C14.8264 15.0439 15.5498 15.4441 16.2429 15.2447Z" stroke="white" stroke-width="1.3" stroke-linecap="round" stroke-linejoin="round"/>
<path d="M8.71355 17.4107C9.4066 17.2114 9.8068 16.4879 9.60743 15.7949C9.40806 15.1018 8.68461 14.7017 7.99156 14.901C7.29852 15.1004 6.89832 15.8238 7.09769 16.5169C7.29706 17.2099 8.02051 17.6101 8.71355 17.4107Z" stroke="white" stroke-width="1.3" stroke-linecap="round" stroke-linejoin="round"/>
<path d="M5.74834 14.1876L3.22137 5.40356" stroke="white" stroke-width="1.3" stroke-linecap="round" stroke-linejoin="round"/>
<path d="M15.5208 12.735L7.3642 15.0815" stroke="white" stroke-width="1.3" stroke-linecap="round" stroke-linejoin="round"/>
<path d="M16.0537 9.86432L5.38733 12.9328" stroke="white" stroke-width="1.3" stroke-linecap="round" stroke-linejoin="round"/>
<path d="M3.58234 6.65845L15.8646 4.48383" stroke="white" stroke-width="1.3" stroke-linecap="round" stroke-linejoin="round"/>
<path d="M16.9476 8.24841L15.8646 4.48383" stroke="white" stroke-width="1.3" stroke-linecap="round" stroke-linejoin="round"/>
<path d="M5.74829 14.1876C5.94792 14.8815 6.67021 15.2811 7.36416 15.0814" stroke="white" stroke-width="1.3" stroke-linecap="round" stroke-linejoin="round"/>
<path d="M16.9476 8.24838C17.1472 8.94232 16.7476 9.6646 16.0537 9.86424" stroke="white" stroke-width="1.3" stroke-linecap="round" stroke-linejoin="round"/>
<path d="M3.22133 5.40357C3.0217 4.70963 2.29941 4.31007 1.60547 4.5097" stroke="white" stroke-width="1.3" stroke-linecap="round" stroke-linejoin="round"/>
<path d="M0.978027 4.69025L1.60546 4.50975" stroke="white" stroke-width="1.3" stroke-linecap="round" stroke-linejoin="round"/>
</svg>
