<svg width="50" height="58" viewBox="0 0 50 58" fill="none" xmlns="http://www.w3.org/2000/svg">
<path d="M24.8838 31.3613C26.1667 36.5161 27.0563 39.1278 29.7969 43.9756C30.9665 43.4905 31.6684 43.4912 32.8379 43.4912C29.4492 48.4915 27.7155 51.9375 24.9697 57.3926L24.8838 57.5615L24.7988 57.3926C22.053 51.9374 20.3185 48.4917 16.9297 43.4912C18.0994 43.4912 18.8019 43.4904 19.9717 43.9756C22.7122 39.128 23.6009 36.5159 24.8838 31.3613ZM24.7061 38.0879C24.0932 41.261 23.6895 42.9552 22.5371 45.3652L24.7061 48.2764L26.876 45.3652C25.7235 42.9551 25.319 41.2611 24.7061 38.0879ZM8.12988 29.1113C8.71459 30.1306 9.06601 30.7421 9.2334 32.0039C14.775 31.9688 17.4671 31.4386 22.5439 29.9795C18.7501 33.6749 16.9474 35.7559 14.1465 40.5684C15.1488 41.3453 15.4991 41.958 16.084 42.9775C10.087 42.524 6.25512 42.7351 0.188477 43.0693L0 43.0791L0.102539 42.9209C3.42351 37.8 5.52163 34.5652 8.12988 29.1113ZM41.4102 29.1113C44.0184 34.5653 46.1165 37.8 49.4375 42.9209L49.54 43.0791L49.3525 43.0693C43.2856 42.7351 39.4533 42.524 33.4561 42.9775C34.0409 41.958 34.3922 41.3453 35.3945 40.5684C32.5935 35.7556 30.7901 33.6751 26.9961 29.9795C32.0732 31.4387 34.7657 31.9688 40.3076 32.0039C40.475 30.7423 40.8255 30.1305 41.4102 29.1113ZM16.6992 33.375C13.6622 34.4274 12.0027 34.9225 9.35254 35.123L7.93262 38.4697L11.5215 38.9053C13.0192 36.6956 14.2751 35.496 16.6992 33.375ZM32.8408 33.376C35.2648 35.4969 36.5209 36.6956 38.0186 38.9053L41.6084 38.4697L40.1875 35.124C37.5375 34.9234 35.8778 34.4284 32.8408 33.376ZM29.5693 24.1504L25.0605 28.54L31.0938 26.8066L33.2627 28.7471L31.0938 30.6875L25.0586 28.9502L29.5693 33.3438L28.9844 36.2051L26.2295 35.2852L24.7051 29.1572L23.1826 35.2852L20.4277 36.2051L19.8428 33.3438L24.3525 28.9512L18.3184 30.6885L16.1494 28.7471L18.3184 26.8066L24.3496 28.54L19.8428 24.1504L20.4277 21.2891L23.1826 22.209L24.7051 28.334L26.2295 22.21L28.9844 21.2891L29.5693 24.1504ZM0.188477 14.4639C6.25509 14.7981 10.087 15.0092 16.084 14.5557C15.4992 15.575 15.1486 16.187 14.1465 16.9639C16.9475 21.7767 18.7498 23.858 22.5439 27.5537C17.467 26.0945 14.7751 25.5634 9.2334 25.5283C9.06602 26.7905 8.71475 27.4023 8.12988 28.4219C5.52154 22.9677 3.4236 19.7333 0.102539 14.6123L0 14.4531L0.188477 14.4639ZM49.4375 14.6123C46.1164 19.7333 44.0185 22.9677 41.4102 28.4219C40.8253 27.4023 40.474 26.7905 40.3066 25.5283C34.765 25.5634 32.0731 26.0945 26.9961 27.5537C30.7903 23.8579 32.5934 21.7768 35.3945 16.9639C34.3922 16.1869 34.0409 15.5751 33.4561 14.5557C39.453 15.0092 43.285 14.7981 49.3516 14.4639L49.54 14.4531L49.4375 14.6123ZM24.791 0.168945C27.5368 5.62416 29.2713 9.06974 32.6602 14.0703C31.4905 14.0703 30.7888 14.0701 29.6191 13.585C26.8784 18.433 25.989 21.0451 24.7061 26.2002C23.4231 21.0451 22.5337 18.433 19.793 13.585C18.6234 14.0701 17.9216 14.0703 16.752 14.0703C20.1408 9.06974 21.8753 5.62414 24.6211 0.168945L24.7061 0L24.791 0.168945ZM7.93262 19.0625L9.35254 22.4092C12.0027 22.6097 13.6622 23.1048 16.6992 24.1572C14.2751 22.0363 13.0191 20.8366 11.5215 18.627L7.93262 19.0625ZM38.0186 18.6279C36.521 20.8375 35.2649 22.0363 32.8408 24.1572C35.8778 23.1048 37.5374 22.6098 40.1875 22.4092L41.6084 19.0625L38.0186 18.6279ZM22.5371 12.1299C23.6894 14.5399 24.0932 16.234 24.7061 19.4072C25.319 16.234 25.7227 14.5399 26.875 12.1299L24.7061 9.21875L22.5371 12.1299Z" fill="#5BD6DF"/>
</svg>
