<svg width="18" height="15" viewBox="0 0 18 15" fill="none" xmlns="http://www.w3.org/2000/svg">
<path d="M10.5341 2.19C8.97407 2.84 5.86407 4.18 1.20407 6.21C0.444071 6.51 0.0440712 6.8 0.00407119 7.09C-0.0559288 7.58 0.554071 7.77 1.38407 8.03L1.73407 8.14C2.55407 8.41 3.65407 8.72 4.22407 8.73C4.74407 8.74 5.32407 8.53 5.96407 8.09C10.3241 5.15 12.5741 3.66 12.7141 3.63C12.8141 3.61 12.9541 3.58 13.0441 3.66C13.1341 3.74 13.1241 3.9 13.1141 3.94C13.0541 4.2 10.6641 6.42 9.42407 7.57C9.03407 7.93 8.76407 8.18 8.70407 8.24C8.58407 8.37 8.45407 8.49 8.32407 8.61C7.56407 9.34 6.99407 9.89 8.35407 10.79C9.00407 11.22 9.53407 11.58 10.0541 11.93C10.6241 12.32 11.1941 12.7 11.9241 13.19C12.1141 13.31 12.2941 13.44 12.4641 13.56C13.1241 14.03 13.7241 14.46 14.4541 14.39C14.8841 14.35 15.3241 13.95 15.5441 12.75C16.0741 9.92 17.1141 3.78 17.3541 1.25C17.3741 1.04 17.3541 0.83 17.3241 0.62C17.3041 0.45 17.2241 0.3 17.0941 0.19C16.9141 0.06 16.6941 0 16.4741 0C15.8741 0.01 14.9441 0.33 10.5041 2.18L10.5341 2.19Z" fill="#2AABEE"/>
</svg>
