<svg width="22" height="17" viewBox="0 0 22 17" fill="none" xmlns="http://www.w3.org/2000/svg">
<path d="M1.45786 7.32575C7.16213 4.92588 10.9683 3.34101 12.8713 2.57353C18.3072 0.392267 19.4373 0.0120904 20.1734 0.0002099C20.4442 -0.00454231 20.7101 0.0714927 20.9317 0.218811C21.0868 0.349497 21.1877 0.532458 21.2098 0.729674C21.2492 0.97679 21.2591 1.22628 21.2419 1.4734C20.9464 4.46016 19.6736 11.7097 19.0261 15.0552C18.7529 16.4809 18.2112 16.9561 17.6893 16.9917C16.5519 17.0915 15.6902 16.267 14.5897 15.5661C12.8664 14.4754 11.8939 13.7983 10.2223 12.7338C8.28969 11.5053 9.54281 10.8329 10.6433 9.72561C10.9313 9.43573 15.9389 5.03993 16.0374 4.64075C16.0644 4.52194 16.03 4.39601 15.9463 4.30571C15.8256 4.23205 15.673 4.2178 15.54 4.2677C15.3677 4.30571 12.6153 6.06166 7.28523 9.53315C6.5048 10.0511 5.79576 10.303 5.16305 10.2887C4.46387 10.2745 3.11966 9.90857 2.12012 9.59493C0.889157 9.21 -0.0808395 9.00803 0.00532773 8.3546C0.0471804 8.02432 0.529717 7.68216 1.45786 7.32575Z" fill="white"/>
</svg>
