<svg width="23" height="24" viewBox="0 0 23 24" fill="none" xmlns="http://www.w3.org/2000/svg">
<path fill-rule="evenodd" clip-rule="evenodd" d="M10.6827 23.9984C17.8075 24.1057 23 18.7335 23 11.9992C23 5.37223 17.4853 0 10.6826 0C6.15377 0 2.22958 2.57126 0.418165 5.63228C-0.237364 6.61181 -0.0647904 7.69346 0.538941 8.20354C1.26354 8.81575 2.37444 8.81575 3.1956 7.83622C5.2485 5.3874 7.62426 4.16299 10.8034 4.16299C16.0721 4.16299 20.3433 8.38403 20.3433 13.5909C20.3433 17.9975 17.6867 20.6925 15.8753 21.4272C17.2037 20.5701 19.3774 18.5983 19.3774 14.8154C19.3774 10.2847 15.5928 6.61181 10.9243 6.61181C9.04568 6.61181 8.07513 6.95562 7.66376 7.10157C6.93918 7.35865 6.35839 8.20354 6.51428 9.18307C6.61135 9.79304 7.23124 10.9198 8.99211 10.5299C9.45774 10.4268 10.3051 10.285 10.8035 10.285C14.3382 10.285 17.0829 13.026 17.0829 16.4071C17.0829 19.7882 14.2174 22.4067 10.6827 22.4067C8.75054 22.4067 5.97311 22.1618 3.0749 20.2028C4.52401 22.4067 6.93918 23.7535 10.6827 23.9984Z" fill="#2993F4"/>
</svg>
